<svg width="164" height="164" viewBox="0 0 164 164" fill="none" xmlns="http://www.w3.org/2000/svg">
<g filter="url(#filter0_d_383_1490)">
<circle cx="82" cy="78" r="64" fill="#EAE7F6"/>
<circle cx="82" cy="78" r="62" stroke="white" stroke-width="4"/>
</g>
<path d="M47 43H117V113H47V43Z" fill="#EAE7F6"/>
<path d="M78.9854 79.0941C77.6301 79.0941 76.5314 80.1928 76.5314 81.5482C76.5314 82.2164 76.8039 82.8557 77.2859 83.3185L77.7803 83.7932C78.6664 84.6437 79.7453 85.1747 80.8722 85.386C80.686 87.5844 79.752 89.2787 78.3737 90.2239C76.8503 91.2686 74.5343 91.5669 71.5001 90.2428C70.9464 90.0012 70.3018 90.2541 70.0602 90.8078C69.8186 91.3614 70.0715 92.0061 70.6251 92.2477C74.1534 93.7874 77.3061 93.6084 79.6109 92.0279C80.6238 91.3333 81.4237 90.4011 82.0001 89.3056C82.5765 90.4011 83.3764 91.3333 84.3893 92.0279C86.6941 93.6084 89.8468 93.7874 93.3751 92.2477C93.9287 92.0061 94.1817 91.3614 93.9401 90.8078C93.6985 90.2541 93.0538 90.0012 92.5001 90.2428C89.4659 91.5669 87.1499 91.2686 85.6265 90.2239C84.2483 89.2787 83.3143 87.5844 83.1281 85.386C84.2549 85.1747 85.3338 84.6437 86.2199 83.7932L86.7143 83.3185C87.1964 82.8557 87.4689 82.2164 87.4689 81.5482C87.4689 80.1928 86.3702 79.0941 85.0148 79.0941H78.9854Z" fill="#765FC2"/>
<path d="M75.4376 75.8129C75.4376 77.021 74.4582 78.0004 73.2501 78.0004C72.042 78.0004 71.0626 77.021 71.0626 75.8129C71.0626 74.6048 72.042 73.6254 73.2501 73.6254C74.4582 73.6254 75.4376 74.6048 75.4376 75.8129Z" fill="#765FC2"/>
<path d="M90.7501 78.0004C91.9582 78.0004 92.9376 77.021 92.9376 75.8129C92.9376 74.6048 91.9582 73.6254 90.7501 73.6254C89.542 73.6254 88.5626 74.6048 88.5626 75.8129C88.5626 77.021 89.542 78.0004 90.7501 78.0004Z" fill="#765FC2"/>
<path fill-rule="evenodd" clip-rule="evenodd" d="M73.9745 57.2962C73.3639 56.1992 72.3488 55.225 71.2257 54.3911C69.8728 53.3867 68.2395 52.4957 66.617 51.7654C64.9914 51.0338 63.3437 50.4488 61.9447 50.0669C61.2456 49.8761 60.5949 49.7322 60.031 49.6475C59.4908 49.5663 58.9455 49.5257 58.4963 49.5947C58.0902 49.6572 57.7533 49.9419 57.6242 50.332C56.572 53.5097 56.7038 57.9722 57.3137 61.7465C57.622 63.6543 58.0616 65.4443 58.568 66.8765C58.8209 67.5916 59.0977 68.2383 59.3943 68.7737C59.5473 69.0498 59.7199 69.3227 59.915 69.5678C59.3791 71.0861 59.0743 72.6901 59.0356 74.3564C56.2851 77.583 54.6564 81.4613 54.6564 85.6566C54.6564 86.2951 54.694 86.926 54.7675 87.5483L52.3332 87.8526C51.7338 87.9275 51.3086 88.4741 51.3836 89.0735C51.4585 89.6729 52.0051 90.0981 52.6045 90.0232L55.1718 89.7022C55.5492 91.1614 56.126 92.5615 56.8767 93.8863L53.11 95.5984C52.5601 95.8484 52.3169 96.4968 52.5669 97.0467C52.8169 97.5966 53.4653 97.8398 54.0152 97.5898L58.0774 95.7434C59.3531 97.4902 60.9448 99.0747 62.7823 100.453C67.7395 104.171 74.5376 106.438 82.0001 106.438C89.4626 106.438 96.2608 104.171 101.218 100.453C103.055 99.0747 104.647 97.4902 105.923 95.7434L109.985 97.5898C110.535 97.8398 111.183 97.5966 111.433 97.0467C111.683 96.4968 111.44 95.8484 110.89 95.5984L107.124 93.8863C107.874 92.5615 108.451 91.1614 108.828 89.7022L111.396 90.0232C111.995 90.0981 112.542 89.6729 112.617 89.0735C112.692 88.4741 112.266 87.9275 111.667 87.8526L109.233 87.5483C109.306 86.926 109.344 86.2951 109.344 85.6566C109.344 81.4613 107.715 77.583 104.965 74.3564C104.926 72.6901 104.621 71.0861 104.085 69.5678C104.28 69.3227 104.453 69.0498 104.606 68.7737C104.903 68.2384 105.179 67.5916 105.432 66.8765C105.939 65.4444 106.378 63.6543 106.687 61.7465C107.296 57.9722 107.428 53.5097 106.376 50.332C106.247 49.942 105.91 49.6572 105.504 49.5948C105.054 49.5256 104.517 49.5663 103.988 49.6482C103.437 49.7335 102.805 49.8783 102.13 50.0699C100.78 50.4532 99.1984 51.0399 97.6399 51.7731C96.0841 52.5051 94.5193 53.398 93.2187 54.4042C92.0901 55.2774 91.0794 56.2976 90.4929 57.442C87.8509 56.5905 84.9806 56.1254 82.0001 56.1254C79.1944 56.1254 76.4864 56.5376 73.9745 57.2962ZM100.027 66.5742C97.7127 63.3883 94.0787 60.8427 89.6564 59.4583V64.8754C89.6564 65.4794 89.1667 65.9691 88.5626 65.9691C87.9586 65.9691 87.4689 65.4794 87.4689 64.8754V58.8836C86.0691 58.5838 84.606 58.3962 83.0939 58.335V67.0629C83.0939 67.6669 82.6042 68.1566 82.0001 68.1566C81.3961 68.1566 80.9064 67.6669 80.9064 67.0629V58.335C79.3943 58.3962 77.9311 58.5838 76.5314 58.8836V64.8754C76.5314 65.4794 76.0417 65.9691 75.4376 65.9691C74.8336 65.9691 74.3439 65.4794 74.3439 64.8754V59.4583C70.7129 60.595 67.6133 62.5145 65.3394 64.9285C64.3653 66.0514 63.4766 67.3026 62.6964 68.6592C61.7409 70.5473 61.2189 72.5962 61.2189 74.7191L61.2189 74.7661L61.2204 75.1834L60.9436 75.4956C58.3291 78.4447 56.8439 81.9375 56.8439 85.6566C56.8439 86.2017 56.8758 86.7421 56.9387 87.2769L61.0832 86.7588C61.6826 86.6839 62.2292 87.109 62.3042 87.7084C62.3791 88.3078 61.9539 88.8545 61.3545 88.9294L57.3646 89.4281C57.7084 90.656 58.2176 91.8437 58.877 92.977L65.1413 90.1296C65.6912 89.8797 66.3396 90.1228 66.5896 90.6728C66.8395 91.2227 66.5964 91.8711 66.0465 92.1211L60.1155 94.817C61.2045 96.2323 62.5425 97.5386 64.0948 98.7028C68.6383 102.11 74.9651 104.25 82.0001 104.25C89.0351 104.25 95.3619 102.11 99.9054 98.7028C101.458 97.5386 102.796 96.2323 103.885 94.817L97.9538 92.1211C97.4038 91.8711 97.1607 91.2227 97.4106 90.6728C97.6606 90.1228 98.309 89.8797 98.859 90.1296L105.123 92.977C105.783 91.8437 106.292 90.656 106.636 89.4281L102.646 88.9294C102.046 88.8545 101.621 88.3078 101.696 87.7084C101.771 87.109 102.318 86.6839 102.917 86.7588L107.062 87.2769C107.124 86.7421 107.156 86.2017 107.156 85.6566C107.156 81.9375 105.671 78.4447 103.057 75.4956L102.78 75.1834L102.781 74.7662L102.781 74.7191C102.781 72.5375 102.23 70.4341 101.224 68.503C100.842 67.8318 100.443 67.1881 100.027 66.5742Z" fill="#765FC2"/>
<path d="M78.9854 79.0941C77.6301 79.0941 76.5314 80.1928 76.5314 81.5482C76.5314 82.2164 76.8039 82.8557 77.2859 83.3185L77.7803 83.7932C78.6664 84.6437 79.7453 85.1747 80.8722 85.386C80.686 87.5844 79.752 89.2787 78.3737 90.2239C76.8503 91.2686 74.5343 91.5669 71.5001 90.2428C70.9464 90.0012 70.3018 90.2541 70.0602 90.8078C69.8186 91.3614 70.0715 92.0061 70.6251 92.2477C74.1534 93.7874 77.3061 93.6084 79.6109 92.0279C80.6238 91.3333 81.4237 90.4011 82.0001 89.3056C82.5765 90.4011 83.3764 91.3333 84.3893 92.0279C86.6941 93.6084 89.8468 93.7874 93.3751 92.2477C93.9287 92.0061 94.1817 91.3614 93.9401 90.8078C93.6985 90.2541 93.0538 90.0012 92.5001 90.2428C89.4659 91.5669 87.1499 91.2686 85.6265 90.2239C84.2483 89.2787 83.3143 87.5844 83.1281 85.386C84.2549 85.1747 85.3338 84.6437 86.2199 83.7932L86.7143 83.3185C87.1964 82.8557 87.4689 82.2164 87.4689 81.5482C87.4689 80.1928 86.3702 79.0941 85.0148 79.0941H78.9854Z" stroke="#765FC2" stroke-linecap="round" stroke-linejoin="round"/>
<path d="M75.4376 75.8129C75.4376 77.021 74.4582 78.0004 73.2501 78.0004C72.042 78.0004 71.0626 77.021 71.0626 75.8129C71.0626 74.6048 72.042 73.6254 73.2501 73.6254C74.4582 73.6254 75.4376 74.6048 75.4376 75.8129Z" stroke="#765FC2" stroke-linecap="round" stroke-linejoin="round"/>
<path d="M90.7501 78.0004C91.9582 78.0004 92.9376 77.021 92.9376 75.8129C92.9376 74.6048 91.9582 73.6254 90.7501 73.6254C89.542 73.6254 88.5626 74.6048 88.5626 75.8129C88.5626 77.021 89.542 78.0004 90.7501 78.0004Z" stroke="#765FC2" stroke-linecap="round" stroke-linejoin="round"/>
<path fill-rule="evenodd" clip-rule="evenodd" d="M73.9745 57.2962C73.3639 56.1992 72.3488 55.225 71.2257 54.3911C69.8728 53.3867 68.2395 52.4957 66.617 51.7654C64.9914 51.0338 63.3437 50.4488 61.9447 50.0669C61.2456 49.8761 60.5949 49.7322 60.031 49.6475C59.4908 49.5663 58.9455 49.5257 58.4963 49.5947C58.0902 49.6572 57.7533 49.9419 57.6242 50.332C56.572 53.5097 56.7038 57.9722 57.3137 61.7465C57.622 63.6543 58.0616 65.4443 58.568 66.8765C58.8209 67.5916 59.0977 68.2383 59.3943 68.7737C59.5473 69.0498 59.7199 69.3227 59.915 69.5678C59.3791 71.0861 59.0743 72.6901 59.0356 74.3564C56.2851 77.583 54.6564 81.4613 54.6564 85.6566C54.6564 86.2951 54.694 86.926 54.7675 87.5483L52.3332 87.8526C51.7338 87.9275 51.3086 88.4741 51.3836 89.0735C51.4585 89.6729 52.0051 90.0981 52.6045 90.0232L55.1718 89.7022C55.5492 91.1614 56.126 92.5615 56.8767 93.8863L53.11 95.5984C52.5601 95.8484 52.3169 96.4968 52.5669 97.0467C52.8169 97.5966 53.4653 97.8398 54.0152 97.5898L58.0774 95.7434C59.3531 97.4902 60.9448 99.0747 62.7823 100.453C67.7395 104.171 74.5376 106.438 82.0001 106.438C89.4626 106.438 96.2608 104.171 101.218 100.453C103.055 99.0747 104.647 97.4902 105.923 95.7434L109.985 97.5898C110.535 97.8398 111.183 97.5966 111.433 97.0467C111.683 96.4968 111.44 95.8484 110.89 95.5984L107.124 93.8863C107.874 92.5615 108.451 91.1614 108.828 89.7022L111.396 90.0232C111.995 90.0981 112.542 89.6729 112.617 89.0735C112.692 88.4741 112.266 87.9275 111.667 87.8526L109.233 87.5483C109.306 86.926 109.344 86.2951 109.344 85.6566C109.344 81.4613 107.715 77.583 104.965 74.3564C104.926 72.6901 104.621 71.0861 104.085 69.5678C104.28 69.3227 104.453 69.0498 104.606 68.7737C104.903 68.2384 105.179 67.5916 105.432 66.8765C105.939 65.4444 106.378 63.6543 106.687 61.7465C107.296 57.9722 107.428 53.5097 106.376 50.332C106.247 49.942 105.91 49.6572 105.504 49.5948C105.054 49.5256 104.517 49.5663 103.988 49.6482C103.437 49.7335 102.805 49.8783 102.13 50.0699C100.78 50.4532 99.1984 51.0399 97.6399 51.7731C96.0841 52.5051 94.5193 53.398 93.2187 54.4042C92.0901 55.2774 91.0794 56.2976 90.4929 57.442C87.8509 56.5905 84.9806 56.1254 82.0001 56.1254C79.1944 56.1254 76.4864 56.5376 73.9745 57.2962ZM100.027 66.5742C97.7127 63.3883 94.0787 60.8427 89.6564 59.4583V64.8754C89.6564 65.4794 89.1667 65.9691 88.5626 65.9691C87.9586 65.9691 87.4689 65.4794 87.4689 64.8754V58.8836C86.0691 58.5838 84.606 58.3962 83.0939 58.335V67.0629C83.0939 67.6669 82.6042 68.1566 82.0001 68.1566C81.3961 68.1566 80.9064 67.6669 80.9064 67.0629V58.335C79.3943 58.3962 77.9311 58.5838 76.5314 58.8836V64.8754C76.5314 65.4794 76.0417 65.9691 75.4376 65.9691C74.8336 65.9691 74.3439 65.4794 74.3439 64.8754V59.4583C70.7129 60.595 67.6133 62.5145 65.3394 64.9285C64.3653 66.0514 63.4766 67.3026 62.6964 68.6592C61.7409 70.5473 61.2189 72.5962 61.2189 74.7191L61.2189 74.7661L61.2204 75.1834L60.9436 75.4956C58.3291 78.4447 56.8439 81.9375 56.8439 85.6566C56.8439 86.2017 56.8758 86.7421 56.9387 87.2769L61.0832 86.7588C61.6826 86.6839 62.2292 87.109 62.3042 87.7084C62.3791 88.3078 61.9539 88.8545 61.3545 88.9294L57.3646 89.4281C57.7084 90.656 58.2176 91.8437 58.877 92.977L65.1413 90.1296C65.6912 89.8797 66.3396 90.1228 66.5896 90.6728C66.8395 91.2227 66.5964 91.8711 66.0465 92.1211L60.1155 94.817C61.2045 96.2323 62.5425 97.5386 64.0948 98.7028C68.6383 102.11 74.9651 104.25 82.0001 104.25C89.0351 104.25 95.3619 102.11 99.9054 98.7028C101.458 97.5386 102.796 96.2323 103.885 94.817L97.9538 92.1211C97.4038 91.8711 97.1607 91.2227 97.4106 90.6728C97.6606 90.1228 98.309 89.8797 98.859 90.1296L105.123 92.977C105.783 91.8437 106.292 90.656 106.636 89.4281L102.646 88.9294C102.046 88.8545 101.621 88.3078 101.696 87.7084C101.771 87.109 102.318 86.6839 102.917 86.7588L107.062 87.2769C107.124 86.7421 107.156 86.2017 107.156 85.6566C107.156 81.9375 105.671 78.4447 103.057 75.4956L102.78 75.1834L102.781 74.7662L102.781 74.7191C102.781 72.5375 102.23 70.4341 101.224 68.503C100.842 67.8318 100.443 67.1881 100.027 66.5742Z" stroke="#765FC2" stroke-linecap="round" stroke-linejoin="round"/>
<defs>
<filter id="filter0_d_383_1490" x="0" y="0" width="164" height="164" filterUnits="userSpaceOnUse" color-interpolation-filters="sRGB">
<feFlood flood-opacity="0" result="BackgroundImageFix"/>
<feColorMatrix in="SourceAlpha" type="matrix" values="0 0 0 0 0 0 0 0 0 0 0 0 0 0 0 0 0 0 127 0" result="hardAlpha"/>
<feMorphology radius="4" operator="dilate" in="SourceAlpha" result="effect1_dropShadow_383_1490"/>
<feOffset dy="4"/>
<feGaussianBlur stdDeviation="7"/>
<feComposite in2="hardAlpha" operator="out"/>
<feColorMatrix type="matrix" values="0 0 0 0 0 0 0 0 0 0 0 0 0 0 0 0 0 0 0.05 0"/>
<feBlend mode="normal" in2="BackgroundImageFix" result="effect1_dropShadow_383_1490"/>
<feBlend mode="normal" in="SourceGraphic" in2="effect1_dropShadow_383_1490" result="shape"/>
</filter>
</defs>
</svg>
