<svg width="30" height="30" viewBox="0 0 30 30" fill="none" xmlns="http://www.w3.org/2000/svg">
                    <mask id="closetmask" style="mask-type:alpha" maskUnits="userSpaceOnUse" x="0" y="0" width="30"
                        height="30">
                        <path
                            d="M24.45 14.8251L16.25 11.1751V9.37513C16.25 8.68763 15.6875 8.12512 15 8.12512C14.3125 8.12512 13.75 7.56262 13.75 6.87512C13.75 6.18762 14.3125 5.62512 15 5.62512C15.6875 5.62512 16.25 6.18762 16.25 6.87512H18.75C18.75 4.57512 16.675 2.75012 14.3 3.18762C12.825 3.46262 11.6125 4.65012 11.325 6.12512C10.95 8.07512 12.075 9.80013 13.75 10.4001V11.1876L5.55 14.8376C4.45 15.3126 3.75 16.4001 3.75 17.5876V17.6001C3.75 19.2751 5.1 20.6251 6.775 20.6251H8.75H21.25H23.225C24.9 20.6251 26.25 19.2751 26.25 17.6001V17.5876C26.25 16.4001 25.55 15.3126 24.45 14.8251ZM23.225 18.1251H21.25H15H8.75H6.775C6.4875 18.1251 6.25 17.8876 6.25 17.5876C6.25 17.3751 6.375 17.1876 6.5625 17.1126L15 13.3626L23.4375 17.1126C23.625 17.2001 23.75 17.3876 23.75 17.6001C23.75 17.8876 23.5125 18.1251 23.225 18.1251Z"
                            fill="#323232"> </path>
                    </mask>
                    <g mask="url(#closetmask)">
                        <rect y="-4" width="30" height="30" fill="#765FC2" />
                    </g>
                    </svg>