<?xml version="1.0" encoding="UTF-8"?><svg id="a" xmlns="http://www.w3.org/2000/svg" viewBox="0 0 500 504"><defs><style>.b,.c{fill:#f7f7fa;}.d{fill:#bdb8cf;}.e{stroke:#765fc2;stroke-width:22.35px;}.e,.f,.g{fill:none;stroke-linecap:round;stroke-miterlimit:10;}.f{stroke-width:13.41px;}.f,.g{stroke:#f7f7fa;}.h{fill:#765fc2;}.c{font-family:Poppins-SemiBold, Poppins;font-size:29.8px;isolation:isolate;}.g{stroke-width:5.96px;}</style></defs><path class="h" d="M381.68,489.37H128.36c-28.76,0-52.15-23.39-52.15-52.15h0c0-28.76,23.39-52.15,52.15-52.15h253.32c28.76,0,52.15,23.39,52.15,52.15h0c0,28.76-23.39,52.15-52.15,52.15Z"/><polygon class="d" points="254.42 76.47 49.39 194.93 255.62 313.84 460.65 195.53 254.42 76.47"/><polygon class="h" points="254.42 15.37 49.39 133.84 255.62 252.75 460.65 134.43 254.42 15.37"/><text class="c" transform="translate(174.83 445.94)"><tspan x="0" y="0">Upload Image</tspan></text><path class="b" d="M116.59,446.46h42.02v9.69c0,2.83-2.38,5.22-5.22,5.22h-31.59c-2.83,0-5.22-2.38-5.22-5.22v-9.69h0Z"/><line class="e" x1="137.15" y1="433.34" x2="137.15" y2="444.52"/><line class="f" x1="137.15" y1="437.82" x2="137.15" y2="444.52"/><polygon class="g" points="147.88 431.41 137.15 431.41 126.42 431.41 131.79 422.17 137.15 412.78 142.52 422.17 147.88 431.41"/></svg>