<svg width="15" height="14" viewBox="0 0 15 14" fill="none" xmlns="http://www.w3.org/2000/svg">
<path d="M7.50002 13.5008C7.01627 13.0718 6.46952 12.6256 5.89127 12.1508H5.88377C3.84752 10.4858 1.53977 8.60184 0.520517 6.34434C0.185655 5.62564 0.0081951 4.84369 8.55448e-06 4.05084C-0.00222779 2.96296 0.434095 1.92008 1.21037 1.15792C1.98665 0.395755 3.03736 -0.0213609 4.12502 0.000843208C5.01049 0.00224181 5.87689 0.258154 6.62102 0.738093C6.94799 0.95032 7.24383 1.20703 7.50002 1.50084C7.75763 1.20819 8.05355 0.951624 8.37977 0.738093C9.12357 0.258059 9.98976 0.00213212 10.875 0.000843208C11.9627 -0.0213609 13.0134 0.395755 13.7897 1.15792C14.5659 1.92008 15.0023 2.96296 15 4.05084C14.9924 4.84495 14.8149 5.62824 14.4795 6.34809C13.4603 8.60559 11.1533 10.4888 9.11702 12.1508L9.10952 12.1568C8.53052 12.6286 7.98452 13.0748 7.50077 13.5068L7.50002 13.5008ZM4.12502 1.50084C3.4264 1.4921 2.75257 1.75948 2.25002 2.24484C1.76581 2.72047 1.49518 3.37213 1.49995 4.05084C1.50851 4.62872 1.63939 5.19823 1.88402 5.72184C2.36515 6.69587 3.01435 7.57738 3.80177 8.32584C4.54502 9.07584 5.40002 9.80184 6.13952 10.4123C6.34427 10.5811 6.55277 10.7513 6.76127 10.9216L6.89252 11.0288C7.09277 11.1923 7.29977 11.3618 7.50002 11.5283L7.50977 11.5193L7.51427 11.5156H7.51877L7.52552 11.5103H7.52927H7.53302L7.54652 11.4991L7.57727 11.4743L7.58252 11.4698L7.59077 11.4638H7.59527L7.60202 11.4578L8.10002 11.0491L8.23052 10.9418C8.44127 10.7701 8.64977 10.5998 8.85452 10.4311C9.59402 9.82059 10.4498 9.09534 11.193 8.34159C11.9805 7.59351 12.6298 6.71223 13.1108 5.73834C13.3598 5.21019 13.4926 4.63472 13.5 4.05084C13.5031 3.37422 13.2327 2.72506 12.75 2.25084C12.2484 1.76328 11.5745 1.49371 10.875 1.50084C10.0215 1.49359 9.20547 1.85137 8.63252 2.48409L7.50002 3.78909L6.36752 2.48409C5.79456 1.85137 4.97857 1.49359 4.12502 1.50084Z" fill="#765FC2"/>
</svg>
